<svg xmlns="http://www.w3.org/2000/svg" width="160" height="87" viewBox="0 0 160 87"><g transform="translate(2729 -471)"><text transform="translate(-2569 553)" fill="#fff" font-size="16" font-family="OpenSans, Open Sans"><tspan x="-159.039" y="0">© Manooth Furniture</tspan></text><g transform="translate(-4180 397)"><path d="M42.5,69.2h0a9.1,9.1,0,0,1-10.4-7.4l-7-41.2a9.1,9.1,0,0,1,7.4-10.4h0a9.1,9.1,0,0,1,10.4,7.4l7,41.2A9,9,0,0,1,42.5,69.2Z" transform="translate(1481.058 63.919)" fill="#cc4c6e"/><path d="M67.5,69.2h0a9.1,9.1,0,0,1-10.4-7.4l-7-41.2a9.1,9.1,0,0,1,7.4-10.4h0a9.1,9.1,0,0,1,10.4,7.4l7,41.2A9,9,0,0,1,67.5,69.2Z" transform="translate(1481.058 63.919)" fill="#cc4c6e"/><path d="M12.3,68.6h0A9.063,9.063,0,0,1,7.7,56.7L25.8,15.5a9.063,9.063,0,0,1,11.9-4.6h0a9.063,9.063,0,0,1,4.6,11.9L24.1,64A8.9,8.9,0,0,1,12.3,68.6Z" transform="translate(1481.058 63.919)" fill="#f3b541"/><path d="M37.3,68.6h0a9.063,9.063,0,0,1-4.6-11.9L50.8,15.5a9.063,9.063,0,0,1,11.9-4.6h0a9.063,9.063,0,0,1,4.6,11.9L49.1,64A8.9,8.9,0,0,1,37.3,68.6Z" transform="translate(1481.058 63.919)" fill="#ffffff"/><path d="M62.3,68.6h0a9.063,9.063,0,0,1-4.6-11.9L75.8,15.5a9.063,9.063,0,0,1,11.9-4.6h0a9.063,9.063,0,0,1,4.6,11.9L74.2,64A8.979,8.979,0,0,1,62.3,68.6Z" transform="translate(1481.058 63.919)" fill="#842c68"/></g></g></svg>