<svg xmlns="http://www.w3.org/2000/svg" width="226.616" height="37" viewBox="0 0 226.616 37"><path d="M32.246,36.906h0c-3.962.5-7.681-1.561-8.409-4.622L18.177,6.551C17.53,3.49,20.2.617,24.16.055h0c3.962-.5,7.681,1.561,8.409,4.622l5.66,25.733C38.876,33.471,36.208,36.344,32.246,36.906Z" transform="translate(-3.495 0.02)" fill="#cc4c6e"/><path d="M57.341,36.906h0c-3.962.5-7.681-1.561-8.409-4.622L43.272,6.551c-.728-3.06,1.941-5.934,5.9-6.5h0c3.962-.5,7.681,1.561,8.409,4.622l5.66,25.733C63.971,33.471,61.3,36.344,57.341,36.906Z" transform="translate(-8.295 0.02)" fill="#cc4c6e"/><path d="M4.374,36.472h0C.736,35.224-.962,31.915.655,29.043L15.29,3.387c1.617-2.809,5.9-4.12,9.622-2.872h0c3.639,1.249,5.336,4.557,3.719,7.429L13.915,33.6C12.3,36.472,8.013,37.721,4.374,36.472Z" transform="translate(-0.042 0.008)" fill="#f3b541"/><path d="M29.374,36.472h0c-3.639-1.249-5.336-4.557-3.719-7.429L40.29,3.387c1.617-2.809,5.9-4.12,9.622-2.872h0c3.639,1.249,5.336,4.557,3.719,7.429L39,33.6C37.3,36.472,33.013,37.721,29.374,36.472Z" transform="translate(-4.828 0.008)" fill="#4cb3aa"/><path d="M54.374,36.472h0c-3.639-1.249-5.336-4.557-3.719-7.429L65.371,3.387c1.617-2.809,5.9-4.12,9.622-2.872h0c3.639,1.249,5.336,4.557,3.719,7.429L64,33.6C62.379,36.472,58.094,37.721,54.374,36.472Z" transform="translate(-12.702 0.008)" fill="#842c68"/><g transform="translate(64.015 8.243)"><path d="M101.017,18.385a.466.466,0,0,1,.485-.485h.323c.323,0,.485.081.566.4l5.983,12.856c.485,1.051,1.051,2.345,1.051,2.345h.081s.566-1.375,1.051-2.345L116.541,18.3a.608.608,0,0,1,.566-.4h.323a.429.429,0,0,1,.485.485l1.617,20.052c0,.323-.162.566-.485.566h-.243a.429.429,0,0,1-.485-.485l-1.294-15.605c-.081-1.051-.081-2.83-.081-2.83h-.081s-.566,1.779-1.051,2.83L110.4,34.556a.608.608,0,0,1-.566.4h-.485c-.323,0-.485-.081-.566-.4l-5.417-11.643c-.485-.97-1.132-2.83-1.132-2.83h-.081s0,1.86-.081,2.83L100.694,38.6a.466.466,0,0,1-.485.485h-.323c-.323,0-.485-.162-.485-.566Z" transform="translate(-99.4 -17.577)" fill="#fff"/><path d="M135.7,18.4a.517.517,0,0,1,.566-.4h.566a.517.517,0,0,1,.566.4l7.52,20.052c.081.323,0,.566-.4.566h-.323a.517.517,0,0,1-.566-.4l-2.668-6.873h-8.894l-2.587,6.873a.517.517,0,0,1-.566.4h-.323c-.4,0-.566-.243-.4-.566Zm4.851,12.128-3.234-8.571c-.323-.889-.809-2.507-.809-2.507h-.081s-.485,1.617-.809,2.507l-3.234,8.571Z" transform="translate(-104.899 -17.596)" fill="#fff"/><path d="M155.765,29.886l-6.792-11.32c-.243-.323-.081-.566.323-.566h.323a.541.541,0,0,1,.566.323l4.771,8c.566,1.051,1.294,2.345,1.294,2.345h.081a21.911,21.911,0,0,1,1.294-2.345l4.77-8a.61.61,0,0,1,.566-.323h.323c.4,0,.566.243.323.566l-6.792,11.32v8.652a.429.429,0,0,1-.485.485h-.081a.429.429,0,0,1-.485-.485Z" transform="translate(-108.868 -17.596)" fill="#fff"/><path d="M172.2,18.485a.429.429,0,0,1,.485-.485h.323a.735.735,0,0,1,.647.323l11.8,16.252c.728.97,1.7,2.668,1.7,2.668h.081s-.162-1.617-.162-2.668V18.485a.429.429,0,0,1,.485-.485h.243a.429.429,0,0,1,.485.485V38.537a.429.429,0,0,1-.485.485h-.323a.735.735,0,0,1-.647-.323l-11.8-16.252c-.728-.97-1.7-2.668-1.7-2.668h-.081s.162,1.617.162,2.668V38.457a.429.429,0,0,1-.485.485h-.243a.429.429,0,0,1-.485-.485Z" transform="translate(-113.337 -17.596)" fill="#fff"/><path d="M208.773,17.5a10.53,10.53,0,0,1,10.673,10.754c0,6.226-4.609,11.077-10.673,11.077S198.1,34.48,198.1,28.254A10.53,10.53,0,0,1,208.773,17.5Zm0,20.618c5.337,0,9.3-4.285,9.3-9.864a9.3,9.3,0,1,0-18.6,0C199.475,33.833,203.436,38.118,208.773,38.118Z" transform="translate(-118.295 -17.5)" fill="#fff"/><path d="M239.273,17.5a10.53,10.53,0,0,1,10.673,10.754c0,6.226-4.609,11.077-10.673,11.077S228.6,34.48,228.6,28.254A10.53,10.53,0,0,1,239.273,17.5Zm0,20.618c5.336,0,9.3-4.285,9.3-9.864a9.3,9.3,0,1,0-18.6,0C229.975,33.833,233.936,38.118,239.273,38.118Z" transform="translate(-124.134 -17.5)" fill="#fff"/><path d="M263.543,19.132h-7.358a.429.429,0,0,1-.485-.485v-.162a.429.429,0,0,1,.485-.485h16.009a.429.429,0,0,1,.485.485v.162a.429.429,0,0,1-.485.485h-7.358V38.537a.429.429,0,0,1-.485.485h-.323a.429.429,0,0,1-.485-.485Z" transform="translate(-129.322 -17.596)" fill="#fff"/><path d="M280.8,18.485a.429.429,0,0,1,.485-.485h.243a.429.429,0,0,1,.485.485v9.379h13.5V18.485A.429.429,0,0,1,296,18h.243a.429.429,0,0,1,.485.485V38.537a.429.429,0,0,1-.485.485H296a.429.429,0,0,1-.485-.485v-9.46H282.094v9.46a.429.429,0,0,1-.485.485h-.243a.429.429,0,0,1-.485-.485V18.485Z" transform="translate(-134.127 -17.596)" fill="#fff"/></g></svg>